# xmcd
#
# Track frame offsets: 
#        182
#        14605
#        26025
#        43650
#        58245
#        72537
#        85955
#        105162
#        118865
#        135157
#
# Disc length: 1981 seconds
#
# Revision: 17
# Processed by: cddbd v1.5.2PL0 Copyright (c) Steve Scherf et al.
# Submitted via: ExactAudioCopyFreeDBPlugin 1.0
#
DISCID=8707bb0a
DTITLE=John Michael Montgomery - John Michael Montgomery
DYEAR=1995
DGENRE=Country
TTITLE0=Cowboy Love
TTITLE1=Sold (The Grundy County Auction Incident)
TTITLE2=I Can Love You Like That
TTITLE3=High School Heart
TTITLE4=Just Like a Rodeo
TTITLE5=Holdin' On to Something
TTITLE6=Long as I Live
TTITLE7=No Man's Land
TTITLE8=Heaven Sent Me You
TTITLE9=It's What I Am
EXTD=1995
EXTT0=
EXTT1=
EXTT2=
EXTT3=
EXTT4=
EXTT5=
EXTT6=
EXTT7=
EXTT8=
EXTT9=
PLAYORDER=
